<?xml version="1.0" encoding="utf-8"?>
<!-- Generator: Adobe Illustrator 25.4.1, SVG Export Plug-In . SVG Version: 6.00 Build 0)  -->
<svg version="1.1" id="Capa_1" xmlns="http://www.w3.org/2000/svg" xmlns:xlink="http://www.w3.org/1999/xlink" x="0px" y="0px"
	 viewBox="0 0 612 792" style="enable-background:new 0 0 612 792;" xml:space="preserve">
<style type="text/css">
	.st0{fill:#F4AACB;}
	.st1{fill:#DF0916;}
</style>
<g>
	<g>
		<g>
			<g>
				<g>
					<path class="st0" d="M186.16,478.79c-20.14,0-36.59-10.32-46.17-28c-8.35-15.72-11.3-34.38-11.05-52.07
						c0.98-37.82,20.63-99.96,67.54-99.96c21.12,0,42,19.16,44.7,40.03c0.25,2.21,0.49,4.67,0.25,6.88
						c-1.23,7.37-7.61,12.28-14.49,12.28c-4.91,0-10.81-2.95-13.02-7.37c-1.72-4.17-1.72-8.84-3.93-12.52
						c-2.7-5.4-7.86-9.82-14-9.82c-12.53,0-22.1,14-26.53,24.07c-7.86,16.21-11.79,34.87-11.05,53.05
						c0.98,17.68,5.65,43.96,28.24,43.96c18.67,0,37.33-17.19,40.28-35.37c0.25-1.47,0.25-2.7,0-3.93
						c-0.25-0.49-0.98-0.74-1.47-0.74c-4.18-0.49-21.86,2.46-26.28,3.44c-2.7,0.49-6.14,0-8.84-1.23
						c-10.56-5.16-11.3-20.14-0.98-26.03c5.4-2.95,25.05-5.4,32.91-5.4c19.4,0,33.16,9.58,34.14,30.45
						c0.49,8.35-1.96,16.7-5.4,24.31C239.45,459.88,214.15,478.79,186.16,478.79z"/>
				</g>
			</g>
		</g>
		<g>
			<path class="st1" d="M278.62,453.84c-2.32-0.36-5-0.89-6.78-2.68c-1.79-1.61-3.39-3.93-3.57-6.43
				c-1.61-11.42-1.61-22.85-1.96-34.45c-0.18-11.07-0.18-21.96-0.36-33.02c0-6.78-0.18-37.66,1.43-44.27
				c0.36-1.25,0.71-2.68,1.43-3.75c1.96-3.57,5.53-5.53,9.28-5.53c1.07,0,2.32,0.36,3.57,0.71c4.82,1.79,8.21,7.32,6.96,12.14
				c-1.61,6.07-1.25,34.27-1.25,40.52c0.18,15.35,0.18,30.88,0.71,46.23c0.18,5.53,0.36,11.25,1.07,16.78
				c0.18,1.61,0.54,3.21,0.18,4.82c-0.71,2.5-1.79,5-3.75,6.43S281.12,454.01,278.62,453.84z"/>
		</g>
		<g>
			<g>
				<g>
					<path class="st0" d="M316.82,453.3c-5,0-10.35-3.39-10.71-8.75c-1.43-16.96-1.07-33.92-0.89-50.7
						c0.18-4.28-0.18-20.53,1.61-24.28c1.79-4.11,5.36-6.96,10-6.96c4.82,0,9.64,3.39,10.53,8.93c0.36,1.96-0.18,4.28-0.36,6.43
						c-0.36,2.68-0.36,18.74-0.36,21.6c-0.18,14.28-0.18,28.74,0.71,43.02c0.36,4.11-3.21,8.75-6.96,10.18
						C319.32,453.12,318.07,453.3,316.82,453.3z"/>
				</g>
			</g>
		</g>
		<g>
			<g>
				<g>
					<path class="st0" d="M353.78,455.8c-2.86-0.36-6.43-1.43-8.03-3.93c-1.25-1.61-2.5-3.39-2.68-5.36
						c-0.36-4.11,0.18-8.03,0.54-12.14c1.79-19.99,1.25-40.34-0.89-60.34c-0.18-1.61-1.25-3.03-1.61-4.64
						c-1.25-6.96,4.11-12.67,10.53-12.67c5.18,0,8.75,3.75,11.07,8.21c1.07,2.5,1.96,13.92,2.14,16.6
						c5.35-8.03,15.53-18.74,25.88-18.74c9.82,0,13.57,7.5,16.42,15.71c5-7.85,13.03-16.78,23.03-17.32
						c12.5,0,22.31,18.21,25.17,28.38c4.46,16.96,3.03,34.99,1.78,52.48c-0.18,2.14-0.53,4.28-1.43,6.07
						c-2.14,3.57-5.71,5.36-9.28,5.36c-4.28,0-8.39-2.5-10.18-6.96c-0.53-1.79-0.53-3.57-0.53-5.36c0.71-8.21,1.25-16.6,1.25-24.99
						c0-10.35-0.54-23.21-7.5-31.6c-3.75,3.57-6.25,8.39-8.21,13.21c-6.07,12.85-8.75,25.17-10.35,39.09
						c-0.71,5.18-5.53,8.93-10.53,8.93c-5.89,0-11.07-4.82-10.71-11.42c0.36-11.07,0.71-22.14,0-33.2
						c-0.18-4.64-0.71-9.46-2.14-13.92c-3.75,3.39-6.25,8.21-8.57,12.67c-6.96,13.39-9.82,28.56-13.39,43.2
						c-0.54,2.5-1.07,5-2.32,7.32C361.45,453.48,357.35,455.98,353.78,455.8z"/>
				</g>
			</g>
		</g>
		<g>
			<path class="st1" d="M268.88,445.15c0.34,2.35,0.69,4.7,1.03,7.05c0.34,2.3,4.01,2.13,4.48,0c0.57-2.59,0.2-5.21-1.18-7.49
				c-1.21-2-4.26-1.13-4.33,1.17c-0.24,8.35,3.06,16.29,8.15,22.79c5.26,6.71,12.53,11.57,20.25,15.03
				c8.02,3.6,16.66,6.21,25.32,7.69c8.88,1.52,18.24,1.75,26.85-1.24c8.59-2.98,15.54-9.04,23.58-13.1
				c7.51-3.78,15.75-6.29,24.09-7.35c8.36-1.06,16.93-0.79,25.18,0.97c9.07,1.94,17.6,5.97,26.8,7.4c8.21,1.27,17.12,0.5,23.83-4.84
				c5.47-4.35,8.51-12.44,6.35-19.24c-0.56-1.77-1.44-3.28-2.58-4.73c-0.64-0.82-1.99-0.81-2.81-0.36
				c-2.91,1.57-4.72,4.33-6.49,7.01c-1.67,2.53-3.59,4.67-6.2,6.24c-5.8,3.49-12.78,3.91-19.35,3.08
				c-7.83-0.99-15.46-3.44-23.17-5.09c-7.87-1.69-15.86-3.02-23.9-3.49c-7.95-0.47-15.99-0.04-23.78,1.69
				c-7.5,1.67-14.6,4.65-21.72,7.48c-6.9,2.74-13.89,5.36-21.26,6.48c-6.57,1-13.76,0.76-19.87-2.07
				c-13.08-6.06-18.2-20.66-21.38-33.68c-0.46-1.89-0.9-3.78-1.33-5.67c-0.5-2.15-4.07-2.28-4.48,0c-1.58,8.78-1.11,17.8,1.53,26.34
				c0.88,2.85,5.36,1.63,4.48-1.23c-2.38-7.71-2.96-15.91-1.53-23.87c-1.49,0-2.99,0-4.48,0c3.3,14.33,7.3,29.68,19.63,38.99
				c12.13,9.16,28.46,6.94,41.89,2.24c7.44-2.6,14.61-5.91,22.09-8.38c7.67-2.53,15.54-3.8,23.61-3.85
				c8.07-0.05,16.11,0.94,24.03,2.44c8.12,1.54,16.07,3.85,24.17,5.44c7.31,1.43,15.03,2,22.17-0.53c3.19-1.13,6.17-2.77,8.68-5.06
				c2.46-2.23,3.97-5.12,5.94-7.74c0.85-1.13,1.83-2.1,3.08-2.78c-0.94-0.12-1.88-0.24-2.81-0.36c3.68,4.7,1.68,11.94-2.16,15.94
				c-5.13,5.34-13.48,6.13-20.44,5.18c-8.73-1.19-16.85-4.98-25.36-7.03c-8.03-1.94-16.39-2.59-24.62-1.95
				c-8.24,0.64-16.39,2.49-24.06,5.61c-3.84,1.56-7.57,3.39-11.12,5.53c-3.67,2.21-7.17,4.69-10.9,6.8
				c-7.52,4.25-15.74,5.67-24.32,5.08c-8.43-0.58-16.81-2.81-24.75-5.62c-14.34-5.07-28.92-14.81-31.82-30.84
				c-0.32-1.77-0.41-3.57-0.36-5.37c-1.44,0.39-2.89,0.78-4.33,1.17c0.73,1.2,1.02,2.53,0.71,3.91c1.49,0,2.99,0,4.48,0
				c-0.34-2.35-0.69-4.7-1.03-7.05c-0.18-1.24-1.75-1.93-2.86-1.62C269.17,442.66,268.69,443.9,268.88,445.15L268.88,445.15z"/>
		</g>
		<g>
			<path class="st1" d="M268.78,446.41c0.24,1.12,0.47,2.25,0.71,3.37c0.24,1.13,1.47,1.81,2.55,1.66c1.05-0.14,2.13-1.13,2.01-2.28
				c-0.12-1.27-0.25-2.54-0.37-3.81c-0.12-1.21-0.98-2.38-2.32-2.32c-1.38,0.06-2.17,1.02-2.32,2.32c-0.15,1.3-0.01,2.64,0.34,3.9
				c1.49-0.41,2.99-0.82,4.48-1.23c-0.17-0.51-0.32-1.02-0.42-1.55c-0.02-0.12-0.05-0.24-0.07-0.37c0.02,0.17,0.02,0.17,0,0
				c-0.03-0.29-0.05-0.57-0.06-0.86c-0.04-1.21-1.04-2.38-2.32-2.32c-1.26,0.06-2.33,1.02-2.32,2.32c0,1.32,0.18,2.66,0.55,3.93
				c0.35,1.21,0.85,2.53,1.63,3.53c1.42,1.83,4.15,0.93,4.69-1.16c0.31-1.18,0.31-2.47,0.4-3.68c0.02-0.31,0.05-0.61,0.08-0.92
				c-0.04,0.39,0.05-0.28,0.07-0.39c0.05-0.26,0.11-0.51,0.19-0.76c0.03-0.11,0.07-0.21,0.11-0.32c0.08-0.23-0.05,0.22,0.08-0.17
				c0.02-0.03,0.04-0.07,0.06-0.1c0.54-0.9-0.4-0.93-2.82-0.08c0.01,0.01,0.23,0.31,0.06,0.05c-0.18-0.27,0.05,0.14,0.09,0.23
				c0.04,0.11,0.09,0.23,0.13,0.34c0.29,0.71,0.59,1.42,0.94,2.1c0.54,1.07,1.16,2.27,1.99,3.15c1.46,1.55,3.85,0.75,4.6-1.05
				c0.51-1.21,0.57-2.63,0.92-3.9c0.18-0.63,0.38-1.26,0.62-1.87c0.06-0.15,0.12-0.31,0.18-0.46c-0.12,0.27,0.07-0.15,0.11-0.23
				c0.05-0.11,0.11-0.22,0.16-0.33c0.05-0.11,0.11-0.22,0.17-0.33c0.24-0.43-0.03-0.24-0.83,0.56c-0.41,0-0.82,0-1.23,0
				c0.05,0.02,0.1,0.04,0.14,0.06c-0.34-0.2-0.68-0.4-1.02-0.6c-0.34-0.68-0.44-0.8-0.31-0.36c0.02,0.08,0.04,0.15,0.05,0.23
				c0.05,0.23,0.1,0.45,0.14,0.68c0.04,0.23,0.08,0.46,0.12,0.69c0.08,0.5-0.02-0.24,0.04,0.31c0.11,0.89,0.19,1.78,0.3,2.67
				c0.26,2.09,0.64,4.04,1.54,5.95c0.97,2.05,4.52,1.09,4.33-1.17c-0.21-2.48-0.68-4.92-1.47-7.28c-0.39-1.15-1.62-2.02-2.86-1.62
				c-1.14,0.37-2.04,1.62-1.62,2.86c0.35,1.04,0.65,2.09,0.88,3.17c0.26,1.21,0.33,1.73,0.43,2.88c1.44-0.39,2.89-0.78,4.33-1.17
				c-0.22-0.47,0.03,0.15-0.13-0.29c-0.08-0.22-0.15-0.43-0.22-0.65c-0.13-0.44-0.24-0.89-0.34-1.34c-0.09-0.45-0.17-0.91-0.23-1.37
				c0.06,0.44-0.03-0.29-0.03-0.31c-0.03-0.23-0.05-0.46-0.08-0.7c-0.12-1.06-0.23-2.12-0.39-3.17c-0.17-1.08-0.32-2.33-1.09-3.16
				c-1.28-1.37-3.35-0.95-4.3,0.54c-0.57,0.89-0.96,1.96-1.33,2.95c-0.33,0.89-0.59,1.8-0.8,2.72c-0.11,0.48-0.21,0.97-0.29,1.45
				c-0.04,0.23-0.08,0.46-0.11,0.69c-0.01,0.08-0.04,0.16-0.06,0.24c0.13-0.49,0.48-0.82,1.03-1c0.41,0,0.82,0,1.23,0
				c0.31,0.25,0.62,0.49,0.94,0.74c-0.07-0.1-0.14-0.2-0.2-0.3c-0.11-0.17-0.22-0.34-0.33-0.51c-0.19-0.31-0.38-0.62-0.56-0.94
				c-0.2-0.35-0.38-0.71-0.56-1.08c-0.09-0.18-0.17-0.37-0.26-0.55c-0.04-0.08-0.14-0.34-0.05-0.12c-0.36-0.87-0.62-1.81-1.35-2.47
				c-0.93-0.85-2.35-1.14-3.46-0.43c-1.54,0.99-1.99,3.1-2.22,4.79c-0.11,0.79-0.16,1.58-0.22,2.38c-0.03,0.39-0.06,0.77-0.1,1.15
				c0.02-0.26,0-0.09-0.01,0.07c-0.02,0.47,0.06-0.11,0.25-0.28c0.34-0.2,0.68-0.4,1.02-0.6c-0.04,0.01-0.08,0.03-0.12,0.04
				c0.41,0,0.82,0,1.23,0c-0.04-0.01-0.09-0.02-0.13-0.03c0.34,0.2,0.68,0.4,1.02,0.6c0.23,0.35,0.26,0.37,0.08,0.07
				c-0.04-0.07-0.08-0.14-0.12-0.21c-0.11-0.21-0.22-0.43-0.32-0.64c0.15,0.33-0.1-0.27-0.13-0.33c-0.09-0.26-0.18-0.53-0.26-0.8
				c-0.06-0.23-0.12-0.46-0.17-0.7c-0.03-0.12-0.05-0.23-0.07-0.35c-0.04-0.26-0.05-0.32-0.03-0.17c0.02,0.15,0.01,0.09-0.02-0.17
				c-0.01-0.12-0.02-0.24-0.03-0.36c-0.02-0.28-0.02-0.56-0.02-0.84c-1.55,0-3.1,0-4.65,0c0.05,1.36,0.27,2.72,0.7,4.01
				c0.39,1.15,1.62,2.02,2.86,1.62c1.19-0.39,1.97-1.6,1.62-2.86c-0.26-0.94-0.31-1.54-0.18-2.66c-1.55,0-3.1,0-4.65,0
				c0.12,1.27,0.25,2.54,0.37,3.81c1.52-0.21,3.04-0.41,4.56-0.62c-0.24-1.12-0.47-2.25-0.71-3.37c-0.25-1.19-1.71-1.99-2.86-1.62
				C269.14,443.96,268.51,445.13,268.78,446.41L268.78,446.41z"/>
		</g>
		<g>
			<path class="st1" d="M283.69,440.55c0.54,3.75,1.53,7.41,2.93,10.92c1.42-0.6,2.83-1.19,4.25-1.79
				c-0.12-0.24-0.13-0.25-0.03-0.02c-0.04-0.1-0.07-0.2-0.09-0.3c-0.07-0.24-0.12-0.48-0.16-0.72c-0.09-0.46-0.16-0.92-0.23-1.38
				c-0.17-1.05-0.35-2.09-0.52-3.14c-0.35-2.09-0.69-4.18-1.04-6.27c-0.2-1.2-1.75-1.98-2.86-1.62c-1.3,0.42-1.84,1.57-1.62,2.86
				c0.36,2.17,0.72,4.34,1.08,6.51c0.17,1.05,0.35,2.09,0.52,3.14c0.19,1.16,0.38,2.24,0.95,3.29c0.55,1.02,1.87,1.38,2.9,0.95
				c0.97-0.41,1.78-1.66,1.34-2.74c-1.41-3.51-2.39-7.18-2.93-10.92c-0.17-1.21-1.77-1.97-2.86-1.62
				C283.99,438.12,283.5,439.26,283.69,440.55L283.69,440.55z"/>
		</g>
		<g>
			<path class="st1" d="M285.32,446.86c1.29,4.31,2.62,8.63,4.54,12.71c1.95,4.15,4.73,7.67,7.67,11.15
				c1.09-1.09,2.19-2.19,3.28-3.28c-6.11-5.51-11.68-12.15-13-20.52c-1.49,0.41-2.99,0.82-4.48,1.23
				c2.28,5.63,4.57,11.25,6.85,16.88c1.42-0.6,2.83-1.19,4.25-1.79c-2.75-4.99-5.51-9.98-8.6-14.77c-1.4-2.17-4.94-0.82-4.25,1.79
				c1.54,5.75,4.14,11.2,7.7,15.98c0.75,1,2.01,1.52,3.18,0.83c1.1-0.64,1.45-2.08,0.83-3.18c-2.89-5.17-6-10.22-9.31-15.14
				c-1.42-2.11-5-0.86-4.25,1.79c1.82,6.38,5.2,12.12,8.61,17.77c1.34-0.78,2.67-1.56,4.01-2.34c-2.08-3.25-4.15-6.51-6.22-9.76
				c-1.02-1.59-2.03-3.19-3.05-4.78c-1.12-1.76-2.04-3.49-4.45-3.07c-1.24,0.22-1.92,1.74-1.62,2.86c1.63,6.1,4.35,11.89,8.03,17.01
				c1.74,2.42,5.31,0.38,4.01-2.34c-2.72-5.69-5.97-11.09-9.73-16.15c-0.95-1.28-3.15-1.71-4.01,0c-0.7,1.4-0.49,2.61,0.06,4
				c0.54,1.37,1.1,2.73,1.68,4.08c1.12,2.61,2.32,5.18,3.59,7.72c0.56,1.12,2.15,1.44,3.18,0.83c1.17-0.68,1.36-2.03,0.83-3.18
				c-2.17-4.69-4.51-9.3-7.01-13.81c-1.12-2.01-4.36-1.11-4.33,1.17c0.04,2.71,1.29,5.28,2.39,7.7c1.08,2.38,2.32,4.67,3.7,6.89
				c1.57,2.53,5.56,0.23,4.01-2.34c-2.34-3.88-4.68-7.75-7.01-11.63c-1.35-2.24-4.94-0.78-4.25,1.79c1.04,3.87,3.52,7.18,5.84,10.37
				c2.42,3.33,4.99,6.54,7.71,9.63c1.76,2,4.96-0.57,3.65-2.81c-1.27-2.16-2.78-4.18-4.48-6.02c-1.09,1.09-2.19,2.19-3.28,3.28
				c3.79,3.94,7.99,7.44,12.51,10.51c0.78-1.34,1.56-2.67,2.34-4.01c-1.29-0.85-2.52-1.77-3.68-2.8c-0.6-0.53-1.18-1.09-1.75-1.66
				c-0.23-0.24-0.47-0.48-0.69-0.73c-0.18-0.19-0.5-0.79-0.47-0.3c-1.32,0.55-2.64,1.09-3.96,1.64c5.1,4.11,10.09,8.61,15.86,11.76
				c1.01,0.55,2.3,0.34,3-0.6c0.64-0.86,0.72-2.3-0.18-3.05c-2.58-2.15-5.16-4.3-7.72-6.49c-2.18-1.87-4.46-3.73-5.96-6.22
				c-1.06,1.06-2.12,2.12-3.18,3.18c5.48,3.84,11.13,7.43,16.92,10.77c2.6,1.5,4.9-2.47,2.34-4.01c-4.08-2.46-8.01-5.17-11.72-8.16
				c0.2,0.75,0.4,1.51,0.6,2.26c0.02-0.07,0.04-0.14,0.05-0.2c-0.2,0.34-0.4,0.68-0.6,1.02c0.05-0.04,0.1-0.08,0.15-0.12
				c-0.34,0.2-0.68,0.4-1.02,0.6c-0.2,0.05-0.45-0.1-0.43,0.06c0.01,0.08,0.66,0.34,0.75,0.38c0.56,0.29,1.13,0.58,1.69,0.87
				c1.06,0.55,2.12,1.12,3.16,1.71c2.08,1.18,4.09,2.47,5.99,3.93c0.78-1.34,1.56-2.67,2.34-4.01c-5.04-2.24-9.68-5.24-13.73-9
				c-0.94,1.22-1.88,2.43-2.81,3.65c4.02,2.2,7.98,4.5,11.89,6.9c2.55,1.57,4.89-2.45,2.34-4.01c-3.9-2.4-7.87-4.7-11.89-6.9
				c-2.25-1.23-4.81,1.8-2.81,3.65c4.33,4.01,9.27,7.32,14.67,9.72c2.77,1.23,4.71-2.19,2.34-4.01c-2.57-1.98-5.35-3.63-8.21-5.14
				c-2.18-1.16-7.24-4.53-8.36-0.32c-0.2,0.74-0.03,1.75,0.6,2.26c4.02,3.24,8.24,6.22,12.66,8.89c0.78-1.34,1.56-2.67,2.34-4.01
				c-5.8-3.34-11.44-6.94-16.92-10.77c-1.95-1.37-4.32,1.28-3.18,3.18c1.63,2.72,3.96,4.82,6.34,6.86c2.67,2.29,5.37,4.54,8.07,6.79
				c0.94-1.22,1.88-2.43,2.81-3.65c-5.43-2.96-10.12-7.17-14.92-11.03c-0.74-0.6-1.61-0.89-2.54-0.48c-0.79,0.35-1.5,1.2-1.43,2.12
				c0.18,2.32,2.06,3.93,3.67,5.43c1.62,1.5,3.38,2.85,5.22,4.07c2.51,1.65,4.8-2.35,2.34-4.01c-4.2-2.84-8.05-6.13-11.57-9.78
				c-2.08-2.16-5.3,1.09-3.28,3.28c1.44,1.56,2.67,3.25,3.75,5.08c1.22-0.94,2.43-1.88,3.65-2.81c-2.46-2.79-4.79-5.68-6.98-8.69
				c-2.06-2.84-4.45-5.82-5.37-9.26c-1.42,0.6-2.83,1.19-4.25,1.79c2.34,3.88,4.68,7.75,7.01,11.63c1.34-0.78,2.67-1.56,4.01-2.34
				c-1.23-1.98-2.35-4.02-3.35-6.12c-0.87-1.85-2.09-4.04-2.12-6.13c-1.44,0.39-2.89,0.78-4.33,1.17c2.51,4.52,4.85,9.12,7.01,13.81
				c1.34-0.78,2.67-1.56,4.01-2.34c-1.04-2.07-2.03-4.17-2.96-6.28c-0.43-0.98-0.85-1.96-1.25-2.95c-0.32-0.79-1.05-1.92-0.94-2.77
				c-0.11,0.39-0.21,0.78-0.32,1.17c0.05-0.1,0.1-0.19,0.14-0.29c-1.34,0-2.67,0-4.01,0c3.76,5.06,7.02,10.46,9.73,16.15
				c1.34-0.78,2.67-1.56,4.01-2.34c-3.47-4.83-6.02-10.16-7.56-15.9c-0.54,0.95-1.08,1.9-1.62,2.86c0.08-0.01,0.16-0.03,0.24-0.04
				c-0.6-0.08-1.19-0.16-1.79-0.23c-0.26-0.38-0.3-0.43-0.1-0.13c0.12,0.19,0.24,0.38,0.37,0.57c0.2,0.32,0.41,0.64,0.61,0.96
				c0.45,0.7,0.9,1.4,1.34,2.11c0.85,1.34,1.71,2.68,2.56,4.02c1.75,2.74,3.5,5.49,5.25,8.23c1.6,2.51,5.56,0.23,4.01-2.34
				c-3.2-5.3-6.42-10.66-8.14-16.66c-1.42,0.6-2.83,1.19-4.25,1.79c3.31,4.92,6.42,9.96,9.31,15.14c1.34-0.78,2.67-1.56,4.01-2.34
				c-3.34-4.48-5.79-9.48-7.23-14.87c-1.42,0.6-2.83,1.19-4.25,1.79c3.09,4.79,5.85,9.78,8.6,14.77c1.24,2.24,5.25,0.69,4.25-1.79
				c-2.28-5.63-4.57-11.25-6.85-16.88c-1.13-2.77-4.95-1.74-4.48,1.23c1.43,9.08,7.55,16.59,14.19,22.57
				c2.24,2.02,5.21-1.01,3.28-3.28c-2.7-3.19-5.16-6.41-6.94-10.21c-1.74-3.71-2.9-7.68-4.07-11.6
				C288.94,442.77,284.45,443.98,285.32,446.86L285.32,446.86z"/>
		</g>
		<g>
			<path class="st1" d="M303.02,480.71c5.66,2.97,11.79,4.71,18.16,5.2c0-1.55,0-3.1,0-4.65c-4.42,0.17-8.59-1.17-12.15-3.8
				c-0.39,1.44-0.78,2.89-1.17,4.33c2.3-0.25,4.56-0.15,6.81,0.39c2.48,0.6,4.2-2.98,1.79-4.25c-2.35-1.24-4.71-2.47-7.06-3.71
				c-0.39,1.44-0.78,2.89-1.17,4.33c4.21,0.38,8.14,2.42,12.21,3.44c2.16,0.54,4.37,0.9,6.59,1.13c1.83,0.19,3.91,0.06,5.62,0.85
				c0.39-1.44,0.78-2.89,1.17-4.33c-5.23,0.45-10.45,0.91-15.68,1.36c-2.61,0.23-3.16,3.67-0.62,4.56
				c4.91,1.72,10.12,2.19,15.27,2.65c1.25,0.11,2.32-1.15,2.32-2.32c0-1.36-1.07-2.2-2.32-2.32c-4.08-0.4-8.19-0.02-12.14,1.06
				c-2.6,0.71-1.95,4.42,0.62,4.56c3.42,0.19,6.84,0.38,10.25,0.58c3.26,0.18,6.62,0.61,9.87,0.19c2.09-0.27,2.94-2.3,1.64-3.96
				c-1-1.29-2.57-1.92-4.17-1.96c0,1.55,0,3.1,0,4.65c2.07-0.06,4.14-0.12,6.21-0.19c1.94-0.06,3.87-0.04,5.62-1.01
				c1.04-0.57,1.54-2.16,0.83-3.18c-1.08-1.56-2.61-1.66-4.37-1.61c-1.8,0.05-3.59,0.29-5.37,0.53c-3.36,0.45-6.84,0.99-10.18,0.16
				c0.54,0.54,1.08,1.08,1.62,1.62c-0.01-0.08-0.03-0.17-0.04-0.25c-0.08,0.6-0.16,1.19-0.23,1.79c-0.45,0.4-0.41,0.47,0.11,0.21
				c0.28-0.09,0.55-0.18,0.83-0.27c0.56-0.18,1.11-0.35,1.67-0.51c1.05-0.31,2.11-0.58,3.17-0.83c2.14-0.5,4.31-0.89,6.49-1.15
				c-0.21-1.52-0.41-3.04-0.62-4.56c-2.79,0.58-5.6,0.98-8.45,1.16c-1.41,0.09-2.83,0.14-4.24,0.14c-0.68,0-1.4,0.04-2.08-0.04
				c-0.8-0.1-0.44-0.44-0.12,0.41c-0.36,0.87-0.71,1.75-1.07,2.62c3.78-1.95,7.94-3.07,12.19-3.27c-0.21-1.52-0.41-3.04-0.62-4.56
				c-5.68,1.31-11.46,1.9-17.28,1.8c0.39,1.44,0.78,2.89,1.17,4.33c2.5-1.22,5.22-1.91,7.9-2.61c2.07-0.54,2.35-4.14,0-4.48
				c-3.21-0.47-6.42-0.73-9.66-0.7c0.39,1.44,0.78,2.89,1.17,4.33c1.78-0.76,3.93-0.51,5.8-0.37c2.2,0.16,4.35,0.26,6.55,0
				c4.74-0.56,9.41-1.73,14.08-2.68c2.63-0.54,1.93-4.5-0.62-4.56c-5.12-0.13-10.1,0.96-14.76,3.07c-1.04,0.47-1.37,1.94-0.95,2.9
				c0.5,1.14,1.56,1.53,2.74,1.34c5.64-0.87,11.17-2.27,16.7-3.68c-0.6-1.42-1.19-2.83-1.79-4.25c-4.16,2-8.27,4.09-11.71,7.22
				c-1.38,1.26-0.39,4.22,1.64,3.96c4.86-0.61,9.45-2.3,13.39-5.24c2.37-1.77,0.4-5.32-2.34-4.01c-3.1,1.49-6.12,3.13-9.06,4.93
				c-2.21,1.36-0.8,4.97,1.79,4.25c2.5-0.7,5.01-1.4,7.51-2.09c1.18-0.33,2.36-0.66,3.53-0.99c1.19-0.33,2.34-0.79,3.59-0.62
				c-0.39-1.44-0.78-2.89-1.17-4.33c-4.04,2.23-8,4.61-11.87,7.12c-2.14,1.39-0.83,5.02,1.79,4.25c4.63-1.37,8.83-3.6,12.63-6.58
				c2.05-1.61-0.69-5.21-2.81-3.65c-3.39,2.49-6.69,5.11-9.88,7.86c-1.72,1.48,0.1,4.68,2.26,3.88c4.38-1.62,8.68-3.46,12.88-5.5
				c2.33-1.14,0.68-5.19-1.79-4.25c-3.3,1.26-6.51,2.74-9.59,4.46c-2.23,1.25-0.71,5.23,1.79,4.25c5.16-2.03,10.64-4.73,13.14-10
				c0.59-1.24,0.25-2.37-0.83-3.18c-2.11-1.58-4.89-1.2-7.25-0.52c-2.67,0.77-5.29,1.48-8.06,1.76c0.39,1.44,0.78,2.89,1.17,4.33
				c4.9-3.04,10.79-3.96,15.19-7.89c1.77-1.58-0.1-4.48-2.26-3.88c-5.78,1.6-11.51,3.33-17.21,5.19c0.6,1.42,1.19,2.83,1.79,4.25
				c4.36-2.22,8.72-4.44,13.08-6.66c2.37-1.21,0.72-4.93-1.79-4.25c-3.32,0.91-6.58,2.04-9.76,3.37c-1.16,0.48-1.99,1.54-1.62,2.86
				c0.31,1.13,1.67,2.06,2.86,1.62c2.23-0.82,4.46-1.65,6.68-2.47c1.18-0.44,1.97-1.57,1.62-2.86c-0.31-1.13-1.67-2.06-2.86-1.62
				c-2.23,0.82-4.46,1.65-6.68,2.47c0.41,1.49,0.82,2.99,1.23,4.48c3.18-1.33,6.43-2.46,9.76-3.37c-0.6-1.42-1.19-2.83-1.79-4.25
				c-4.36,2.22-8.72,4.44-13.08,6.66c-2.33,1.19-0.72,5.07,1.79,4.25c5.69-1.87,11.43-3.6,17.21-5.19
				c-0.75-1.29-1.51-2.59-2.26-3.88c-4,3.57-9.75,4.37-14.25,7.16c-1.81,1.12-1.25,4.57,1.17,4.33c2.67-0.27,5.31-0.73,7.89-1.5
				c1.55-0.46,3.62-1.48,5.08-0.38c-0.28-1.06-0.56-2.12-0.83-3.18c-1.97,4.15-6.29,6.26-10.37,7.87c0.6,1.42,1.19,2.83,1.79,4.25
				c2.73-1.53,5.56-2.87,8.48-3.99c-0.6-1.42-1.19-2.83-1.79-4.25c-3.84,1.87-7.76,3.55-11.77,5.03c0.75,1.29,1.51,2.59,2.26,3.88
				c2.89-2.49,5.86-4.87,8.94-7.13c-0.94-1.22-1.88-2.43-2.81-3.65c-3.14,2.46-6.76,4.26-10.58,5.38c0.6,1.42,1.19,2.83,1.79,4.25
				c3.87-2.52,7.83-4.89,11.87-7.12c0.9-0.5,1.33-1.65,1.07-2.62c-0.29-1.07-1.21-1.57-2.24-1.71c-1.34-0.18-2.66,0.19-3.94,0.54
				c-1.33,0.37-2.65,0.74-3.98,1.11c-2.65,0.74-5.3,1.48-7.95,2.22c0.6,1.42,1.19,2.83,1.79,4.25c2.93-1.8,5.95-3.45,9.06-4.93
				c-0.78-1.34-1.56-2.67-2.34-4.01c-3.24,2.42-7.01,4.1-11.04,4.61c0.55,1.32,1.09,2.64,1.64,3.96c3.13-2.85,6.99-4.68,10.77-6.5
				c2.43-1.17,0.69-4.88-1.79-4.25c-5.52,1.41-11.06,2.81-16.7,3.68c0.6,1.42,1.19,2.83,1.79,4.25c3.9-1.76,8.15-2.54,12.42-2.43
				c-0.21-1.52-0.41-3.04-0.62-4.56c-4.66,0.96-9.42,2.3-14.18,2.65c-4.57,0.33-8.97-0.99-13.36,0.88
				c-2.21,0.94-0.97,4.34,1.17,4.33c2.82-0.02,5.64,0.13,8.43,0.54c0-1.49,0-2.99,0-4.48c-3.09,0.81-6.13,1.68-9.01,3.08
				c-2.16,1.05-1,4.29,1.17,4.33c6.23,0.11,12.45-0.56,18.52-1.96c2.53-0.59,2.01-4.69-0.62-4.56c-5.1,0.24-10,1.56-14.53,3.91
				c-0.84,0.43-1.42,1.71-1.07,2.62c1.41,3.69,5.91,3.11,9.14,2.99c3.85-0.14,7.7-0.64,11.47-1.42c2.52-0.52,2-4.87-0.62-4.56
				c-3.18,0.37-6.33,0.92-9.43,1.73c-2.71,0.71-7.71,1.38-7.05,5.16c0.13,0.76,0.9,1.45,1.62,1.62c3.14,0.77,6.31,0.65,9.49,0.25
				c1.57-0.19,3.14-0.43,4.72-0.6c0.71-0.07,1.43-0.13,2.15-0.17c0.43-0.02,0.86-0.01,1.29-0.03c0.36-0.01,0.47,0.15,0.2-0.04
				c-0.28-0.28-0.56-0.56-0.83-0.83c0.04,0.06,0.09,0.13,0.13,0.19c0.28-1.06,0.56-2.12,0.83-3.18c-1.15,0.63-2.89,0.36-4.16,0.4
				c-1.77,0.05-3.55,0.11-5.32,0.16c-2.99,0.09-2.99,4.57,0,4.65c0.44,0.01,0.6,0.23,0.89,0.6c0.55-1.32,1.09-2.64,1.64-3.96
				c-3.26,0.42-6.61,0-9.87-0.19c-3.42-0.19-6.84-0.38-10.25-0.58c0.21,1.52,0.41,3.04,0.62,4.56c3.58-0.97,7.22-1.25,10.91-0.89
				c0-1.55,0-3.1,0-4.65c-4.76-0.42-9.5-0.89-14.04-2.48c-0.21,1.52-0.41,3.04-0.62,4.56c5.23-0.45,10.45-0.91,15.68-1.36
				c1.03-0.09,1.95-0.66,2.24-1.71c0.25-0.92-0.15-2.2-1.07-2.62c-2.09-0.96-4.23-1.18-6.5-1.35c-2.31-0.18-4.58-0.54-6.82-1.1
				c-4.53-1.13-8.75-3.17-13.45-3.6c-2.31-0.21-3.14,3.29-1.17,4.33c2.35,1.24,4.71,2.47,7.06,3.71c0.6-1.42,1.19-2.83,1.79-4.25
				c-2.64-0.63-5.35-0.85-8.05-0.56c-2.35,0.26-3.08,2.92-1.17,4.33c4.15,3.07,9.34,4.63,14.49,4.43c3.01-0.11,2.96-4.42,0-4.65
				c-5.52-0.42-10.92-1.99-15.82-4.56C302.72,475.31,300.37,479.32,303.02,480.71L303.02,480.71z"/>
		</g>
		<g>
			<path class="st1" d="M364.56,467.49c2.29-0.44,4.57-0.89,6.86-1.33c1.23-0.24,1.94-1.71,1.62-2.86c-0.36-1.3-1.62-1.85-2.86-1.62
				c-3.65,0.66-6.95,2.34-9.75,4.74c-1.81,1.55,0.13,4.47,2.26,3.88c5.23-1.45,10.46-2.91,15.69-4.36c-0.6-1.42-1.19-2.83-1.79-4.25
				c-4.96,2.41-9.83,4.9-14.19,8.3c-1.44,1.12-0.49,3.44,1.02,3.88c3.1,0.91,6.21-0.75,9.01-1.95c2.64-1.13,5.29-2.24,8.14-2.71
				c-0.6-1.42-1.19-2.83-1.79-4.25c-3.91,2.22-7.73,4.61-11.45,7.15c-1.75,1.2-1.32,3.49,0.55,4.25c1.67,0.67,3.32-0.23,4.83-0.88
				c1.63-0.7,3.26-1.4,4.89-2.1c3.26-1.4,6.52-2.79,9.78-4.19c1.05-0.45,1.37-1.96,0.95-2.9c-0.47-1.06-1.59-1.64-2.74-1.34
				c-5.8,1.47-11.59,2.93-17.39,4.4c0.6,1.42,1.19,2.83,1.79,4.25c5.12-3.12,10.62-5.43,16.43-6.9c2.46-0.63,2.04-4.88-0.62-4.56
				c-3.23,0.39-6.46,0.81-9.69,1.25c0.6,1.42,1.19,2.83,1.79,4.25c1.16-0.84,2.54-1.03,3.93-1.24c1.65-0.25,3.32-0.4,4.98-0.51
				c3.45-0.24,6.91-0.26,10.37-0.29c2.99-0.02,2.99-4.6,0-4.65c-6.25-0.08-12.51-0.17-18.76-0.25c0,1.55,0,3.1,0,4.65
				c7.1-0.61,14.35-1.26,21.42-0.03c0.21-1.52,0.41-3.04,0.62-4.56c-6.62-0.13-13.25-0.24-19.87,0.23c0.21,1.52,0.41,3.04,0.62,4.56
				c2.44-0.58,4.94-1.2,7.41-0.48c-0.18-1.42-0.37-2.83-0.55-4.25c-1.64,0.8-3.11,1.91-4.35,3.24c-1.06,1.15-0.81,3.61,1.02,3.88
				c2.69,0.41,5.3,0.35,7.96-0.27c2.55-0.59,2-4.61-0.62-4.56c-0.64,0.01-1.28,0.03-1.91,0.04c-2.98,0.06-3,4.65,0,4.65
				c0.22,0,0.44,0,0.65,0c2.99,0,2.99-4.65,0-4.65c-0.22,0-0.44,0-0.65,0c0,1.55,0,3.1,0,4.65c0.64-0.01,1.28-0.03,1.91-0.04
				c-0.21-1.52-0.41-3.04-0.62-4.56c-1.79,0.42-3.67,0.54-5.49,0.27c0.34,1.29,0.68,2.59,1.02,3.88c1-1.08,2.09-1.87,3.41-2.52
				c1.86-0.91,1.25-3.72-0.55-4.25c-3.29-0.95-6.63-0.3-9.88,0.48c-2.5,0.6-2.03,4.75,0.62,4.56c6.61-0.48,13.24-0.36,19.87-0.23
				c2.55,0.05,3.25-4.1,0.62-4.56c-7.53-1.32-15.09-0.79-22.65-0.14c-2.94,0.25-3.04,4.6,0,4.65c6.25,0.08,12.51,0.17,18.76,0.25
				c0-1.55,0-3.1,0-4.65c-3.76,0.03-7.52,0.06-11.27,0.36c-1.85,0.15-3.7,0.36-5.54,0.65c-1.7,0.27-3.4,0.65-4.82,1.67
				c-2.21,1.61-0.82,4.6,1.79,4.25c2.82-0.38,5.63-0.74,8.46-1.08c-0.21-1.52-0.41-3.04-0.62-4.56c-6.17,1.57-12.1,4.06-17.54,7.37
				c-2.25,1.37-0.78,4.9,1.79,4.25c5.8-1.47,11.59-2.93,17.39-4.4c-0.6-1.42-1.19-2.83-1.79-4.25c-2.83,1.21-5.67,2.43-8.5,3.64
				c-1.35,0.58-2.69,1.15-4.04,1.73c-0.71,0.3-1.42,0.61-2.13,0.91c-0.31,0.13-0.99,0.52-1.25,0.42c0.18,1.42,0.37,2.83,0.55,4.25
				c3.72-2.54,7.53-4.93,11.45-7.15c1-0.57,1.41-1.86,0.95-2.9c-0.5-1.13-1.56-1.54-2.74-1.34c-2.71,0.44-5.23,1.46-7.74,2.53
				c-1.14,0.49-2.27,0.99-3.43,1.44c-1.09,0.42-2.33,1.03-3.51,0.69c0.34,1.29,0.68,2.59,1.02,3.88c4.02-3.13,8.7-5.35,13.25-7.57
				c2.4-1.17,0.7-4.94-1.79-4.25c-5.23,1.45-10.46,2.91-15.69,4.36c0.75,1.29,1.51,2.59,2.26,3.88c2.21-1.89,4.86-3.03,7.7-3.54
				c-0.41-1.49-0.82-2.99-1.23-4.48c-2.29,0.44-4.57,0.89-6.86,1.33c-1.23,0.24-1.94,1.71-1.62,2.86
				C362.06,467.16,363.33,467.73,364.56,467.49L364.56,467.49z"/>
		</g>
		<g>
			<path class="st1" d="M373.29,462.76c1.66-0.79,3.52-1.02,5.33-1.13c2.19-0.14,4.39-0.19,6.59-0.24c4.55-0.12,9.1-0.13,13.65-0.06
				c2.99,0.05,2.99-4.6,0-4.65c-4.85-0.08-9.71-0.06-14.56,0.08c-4.5,0.13-9.21,0-13.36,1.98c-1.13,0.54-1.43,2.16-0.83,3.18
				C370.79,463.08,372.16,463.3,373.29,462.76L373.29,462.76z"/>
		</g>
		<g>
			<path class="st1" d="M378.85,461.15c11.25-1.75,22.77-0.61,33.9,1.41c5.65,1.02,11.25,2.27,16.85,3.51
				c5.59,1.24,11.22,2.7,16.94,3.18c3.15,0.27,6.27,0.03,9.36-0.65c3.11-0.69,6.14-1.72,9.28-2.25c1.24-0.21,1.93-1.73,1.62-2.86
				c-0.36-1.31-1.62-1.83-2.86-1.62c-2.72,0.46-5.34,1.29-8.01,1.95c-2.67,0.67-5.3,1-8.06,0.88c-5.59-0.26-11.15-1.8-16.59-3.01
				c-11.25-2.49-22.56-5.02-34.09-5.8c-6.55-0.44-13.09-0.23-19.57,0.78c-1.24,0.19-1.93,1.75-1.62,2.86
				C376.35,460.86,377.6,461.35,378.85,461.15L378.85,461.15z"/>
		</g>
		<g>
			<path class="st1" d="M399.07,465.3c2.4-0.53,4.81-0.73,7.26-0.66c-0.21-1.52-0.41-3.04-0.62-4.56c-1.37,0.4-2.77,0.74-4.18,0.93
				c-1.24,0.16-2.32,0.95-2.32,2.32c0,1.24,1.06,2.35,2.32,2.32c8.46-0.2,17.34,0.38,25.41,3.08c8.01,2.68,15.93,5.68,24.44,6.29
				c4.72,0.34,9.55-0.13,14.03-1.69c2.79-0.97,1.68-5.3-1.23-4.48c-3.27,0.92-6.58,1.62-9.94,2.11c0.6,1.42,1.19,2.83,1.79,4.25
				c1.8-0.86,3.6-1.72,5.41-2.58c2.08-0.99,1.06-4.44-1.17-4.33c-2.78,0.14-5.55,0.47-8.28,0.99c0.6,1.42,1.19,2.83,1.79,4.25
				c0.72-0.53,1.34-0.78,2.22-0.93c1.24-0.21,1.93-1.73,1.62-2.86c-0.36-1.32-1.61-1.82-2.86-1.62c-2.4,0.39-4.8,0.78-7.2,1.16
				c-2.56,0.41-1.99,4.8,0.62,4.56c5.32-0.49,10.56-1.53,15.64-3.19c2.83-0.92,1.62-5.41-1.23-4.48c-4.68,1.53-9.5,2.57-14.41,3.02
				c0.21,1.52,0.41,3.04,0.62,4.56c2.4-0.39,4.8-0.78,7.2-1.16c-0.41-1.49-0.82-2.99-1.23-4.48c-1.2,0.2-2.34,0.69-3.33,1.4
				c-2.13,1.55-0.88,4.75,1.79,4.25c2.33-0.44,4.67-0.71,7.05-0.83c-0.39-1.44-0.78-2.89-1.17-4.33c-1.8,0.86-3.6,1.72-5.41,2.58
				c-1.03,0.49-1.38,1.92-0.95,2.9c0.5,1.14,1.56,1.52,2.74,1.34c3.36-0.49,6.67-1.19,9.94-2.11c-0.41-1.49-0.82-2.99-1.23-4.48
				c-7.72,2.69-15.92,1.63-23.62-0.53c-4.05-1.14-8-2.58-11.98-3.93c-4.01-1.36-8.1-2.1-12.29-2.63c-4.89-0.63-9.83-0.87-14.76-0.75
				c0,1.55,0,3.1,0,4.65c1.84-0.24,3.64-0.57,5.42-1.1c2.53-0.74,2.01-4.48-0.62-4.56c-2.86-0.08-5.7,0.21-8.49,0.83
				C394.92,461.47,396.15,465.95,399.07,465.3L399.07,465.3z"/>
		</g>
		<g>
			<path class="st1" d="M459.1,468.26c3.55-2.04,6.83-4.61,9.63-7.6c2.45-2.62,4.54-5.65,7.75-7.19c-0.78-1.34-1.56-2.67-2.34-4.01
				c-1.71,1.21-3.12,2.65-4.26,4.41c-0.68,1.05-0.21,2.57,0.83,3.18c1.13,0.66,2.49,0.22,3.18-0.83c0.68-1.05,1.58-2.02,2.6-2.74
				c1.02-0.72,1.51-2.03,0.83-3.18c-0.68-1.16-2.04-1.38-3.18-0.83c-3.45,1.66-5.79,4.73-8.31,7.5c-2.64,2.9-5.67,5.34-9.07,7.29
				C454.17,465.74,456.5,469.75,459.1,468.26L459.1,468.26z"/>
		</g>
		<g>
			<path class="st1" d="M472.35,456.38c1.19-1.93,3.55-4.34,5.99-3.07c2.64,1.38-0.15,6.08-1.11,7.81
				c-3.21,5.82-8.77,10.69-15.57,11.54c0.75,0.98,1.49,1.96,2.24,2.94c0.24-1.03,1.22-1.9,1.89-2.68c0.89-1.05,1.81-2.08,2.74-3.1
				c1.87-2.03,3.81-3.98,5.83-5.87c-1.09-1.09-2.19-2.19-3.28-3.28c-2.02,2.29-4.23,4.37-6.64,6.25c1.09,1.09,2.19,2.19,3.28,3.28
				c3.04-3.64,6.08-7.28,9.12-10.92c1.73-2.08-0.39-4.72-2.81-3.65c-2.87,1.27-5.45,3.18-7.52,5.53c-1.97,2.23,1.12,5.39,3.28,3.28
				c1.42-1.38,2.8-2.8,4.12-4.27c1.49-1.66,3-3.09,2.6-5.5c-0.31-1.93-2.67-1.96-3.88-1.02c-2.62,2.04-4.81,4.56-6.52,7.41
				c1.34,0.78,2.67,1.56,4.01,2.34c0.64-1.22,1.37-2.37,2.25-3.42c0.81-0.96,0.94-2.34,0-3.28c-0.84-0.84-2.45-0.95-3.28,0
				c-2.34,2.67-4.46,5.53-6.3,8.56c-1.34,2.2,1.91,4.86,3.65,2.81c1.68-1.99,3.37-3.97,5.05-5.96c1.94-2.29-1-5.23-3.28-3.28
				c-3.06,2.6-6.13,5.2-9.19,7.8c-1.99,1.69,0.68,5.22,2.81,3.65c2.72-2.01,5.56-3.82,8.52-5.44c-1.06-1.06-2.12-2.12-3.18-3.18
				c-1.13,1.92-2.37,3.77-3.77,5.5c-1.68,2.09,0.36,4.74,2.81,3.65c3.19-1.42,5.69-3.93,8.08-6.41c-1.09-1.09-2.19-2.19-3.28-3.28
				c-2.12,2.52-3.89,5.26-5.21,8.28c-0.42,0.96-0.43,2.02,0.36,2.81c0.68,0.68,1.99,0.96,2.81,0.36c2.24-1.62,4.09-3.56,5.54-5.92
				c1.39-2.26-1.79-4.68-3.65-2.81c-1.24,1.24-2.35,2.58-3.39,3.98c-1.38,1.86,1.32,4.46,3.18,3.18c1.13-0.78,2.26-1.56,3.39-2.33
				c-1.14-0.87-2.27-1.75-3.41-2.62c-0.15,0.63,0.28,0.02-0.19,0.28c1.06,1.06,2.12,2.12,3.18,3.18c0.05-0.12,0.1-0.24,0.15-0.35
				c0.49-1.15,0.34-2.49-0.83-3.18c-0.98-0.57-2.68-0.33-3.18,0.83c-0.05,0.12-0.1,0.24-0.15,0.35c-0.42,0.97-0.43,2.02,0.36,2.81
				c0.74,0.74,1.91,0.86,2.81,0.36c1.18-0.65,2.02-1.74,2.33-3.05c0.42-1.83-1.65-3.84-3.41-2.62c-1.13,0.78-2.26,1.56-3.39,2.33
				c1.06,1.06,2.12,2.12,3.18,3.18c0.8-1.08,1.71-2.09,2.66-3.04c-1.22-0.94-2.43-1.88-3.65-2.81c-1.01,1.65-2.3,3.11-3.87,4.26
				c1.06,1.06,2.12,2.12,3.18,3.18c1.15-2.64,2.62-5.13,4.48-7.34c0.81-0.96,0.94-2.34,0-3.28c-0.88-0.88-2.41-0.91-3.28,0
				c-2.14,2.22-4.28,4.41-7.14,5.68c0.94,1.22,1.88,2.43,2.81,3.65c1.65-2.05,3.16-4.18,4.5-6.44c1.2-2.04-1.17-4.28-3.18-3.18
				c-2.96,1.62-5.8,3.44-8.52,5.44c0.94,1.22,1.88,2.43,2.81,3.65c3.06-2.6,6.13-5.2,9.19-7.8c-1.09-1.09-2.19-2.19-3.28-3.28
				c-1.68,1.99-3.37,3.97-5.05,5.96c1.22,0.94,2.43,1.88,3.65,2.81c1.64-2.7,3.49-5.24,5.58-7.62c-1.09-1.09-2.19-2.19-3.28-3.28
				c-1.14,1.36-2.15,2.79-2.98,4.37c-1.39,2.64,2.47,4.92,4.01,2.34c1.52-2.53,3.47-4.66,5.79-6.47c-1.29-0.34-2.59-0.68-3.88-1.02
				c0.02,0.12,0.04,0.23,0.06,0.35c0-0.41,0-0.82,0-1.23c-0.09,0.47-0.58,0.86-0.9,1.23c-0.51,0.58-1.04,1.16-1.57,1.73
				c-1.01,1.09-2.05,2.14-3.12,3.17c1.09,1.09,2.19,2.19,3.28,3.28c1.85-2.09,4.03-3.67,6.58-4.8c-0.94-1.22-1.88-2.43-2.81-3.65
				c-3.04,3.64-6.08,7.28-9.12,10.92c-1.95,2.33,0.95,5.11,3.28,3.28c2.4-1.88,4.62-3.97,6.64-6.25c1.97-2.23-1.09-5.34-3.28-3.28
				c-2.22,2.08-4.37,4.25-6.41,6.51c-0.97,1.08-1.93,2.17-2.86,3.28c-0.99,1.19-2.02,2.35-2.38,3.9c-0.3,1.3,0.66,3.14,2.24,2.94
				c7.49-0.94,13.82-5.21,18.06-11.38c2.02-2.93,3.99-6.57,4.28-10.17c0.31-3.88-2.46-6.9-6.23-7.34c-4.08-0.48-7.42,2.36-9.44,5.63
				C466.76,456.58,470.78,458.92,472.35,456.38L472.35,456.38z"/>
		</g>
		<g>
			<path class="st1" d="M354.11,487.21c8.12-1.68,15.38-5.81,22.89-9.14c7.54-3.35,15.63-5.83,23.84-6.78
				c8.47-0.98,16.71-0.09,24.98,1.84c8.46,1.97,16.82,4.63,25.5,5.48c8.51,0.83,18.3-1.29,22.77-9.35c1.45-2.62-2.56-4.96-4.01-2.34
				c-3.64,6.56-11.74,7.7-18.54,7.07c-8.31-0.77-16.38-3.45-24.48-5.33c-8.22-1.91-16.51-2.96-24.94-2.14
				c-8.25,0.8-16.3,2.94-23.96,6.06c-8.4,3.42-16.3,8.31-25.27,10.16c-1.23,0.25-1.94,1.7-1.62,2.86
				C351.61,486.87,352.88,487.47,354.11,487.21L354.11,487.21z"/>
		</g>
		<g>
			<path class="st1" d="M375.98,462.25c0.07-0.03,0.14-0.06,0.21-0.09c-0.18,0.08-0.37,0.16-0.55,0.23c0.65-0.27,1.3-0.5,1.98-0.7
				c1.12-0.32,1.82-1.41,1.66-2.55c-0.15-1.1-1.12-2.05-2.28-2.01c-1.12,0.04-2.23,0.33-3.17,0.94c-0.98,0.63-1.41,1.81-0.95,2.9
				c0.45,1.08,1.6,1.62,2.74,1.34c0.79-0.19,1.57-0.44,2.33-0.76c0.58-0.24,1.06-0.5,1.39-1.07c0.29-0.5,0.41-1.23,0.23-1.79
				c-0.39-1.2-1.6-1.96-2.86-1.62c-0.75,0.2-1.48,0.45-2.2,0.74c0.6,1.42,1.19,2.83,1.79,4.25c0.21-0.1,0.43-0.2,0.64-0.29
				c-0.18,0.08-0.37,0.16-0.55,0.23c0.62-0.25,1.25-0.46,1.9-0.62c0.95-0.23,1.75-1.25,1.71-2.24c-0.02-0.41-0.12-0.81-0.32-1.17
				c-0.24-0.46-0.87-0.98-1.39-1.07c-0.71-0.13-1.26-0.13-1.97,0c-0.32,0.06-0.63,0.17-0.94,0.29c-0.74,0.3-1.47,0.62-2.18,0.99
				c-1.27,0.67-2.44,1.5-3.55,2.4c-0.43,0.35-0.68,1.11-0.68,1.64c0,0.57,0.25,1.25,0.68,1.64c0.44,0.41,1.02,0.71,1.64,0.68
				c0.65-0.03,1.14-0.27,1.64-0.68c0.12-0.09,0.23-0.19,0.35-0.28c-0.16,0.12-0.31,0.24-0.47,0.36c1.28-0.98,2.67-1.8,4.15-2.43
				c-0.18,0.08-0.37,0.16-0.55,0.23c0.39-0.16,0.78-0.32,1.2-0.39c-0.21,0.03-0.41,0.06-0.62,0.08c0.19-0.02,0.37-0.03,0.56-0.01
				c-0.21-0.03-0.41-0.06-0.62-0.08c0.04,0.01,0.07,0.01,0.11,0.02c0-1.49,0-2.99,0-4.48c-1.07,0.26-2.1,0.66-3.1,1.14
				c-0.48,0.23-0.95,0.88-1.07,1.39c-0.12,0.52-0.09,1.02,0.12,1.51c0.19,0.45,0.51,0.88,0.95,1.11c0.52,0.27,1.22,0.46,1.79,0.23
				c0.72-0.29,1.45-0.54,2.2-0.74c-0.41-1.49-0.82-2.99-1.23-4.48c-0.76,0.31-1.53,0.56-2.33,0.76c0.6,1.42,1.19,2.83,1.79,4.25
				c0.21-0.14,0.42-0.25,0.65-0.35c-0.18,0.08-0.37,0.16-0.55,0.23c0.3-0.12,0.6-0.2,0.92-0.25c-0.21,0.03-0.41,0.06-0.62,0.08
				c0.14-0.02,0.28-0.03,0.42-0.03c-0.21-1.52-0.41-3.04-0.62-4.56c-0.94,0.27-1.85,0.63-2.75,1.02c-0.5,0.22-0.93,0.89-1.07,1.39
				c-0.15,0.56-0.08,1.3,0.23,1.79c0.32,0.5,0.8,0.93,1.39,1.07c0.21,0.03,0.41,0.06,0.62,0.08
				C375.23,462.56,375.62,462.46,375.98,462.25L375.98,462.25z"/>
		</g>
		<g>
			<path class="st1" d="M270.31,457.1c3.13,9.38,9.09,17.62,16.89,23.67c3.97,3.08,8.33,5.54,13.02,7.35
				c5.22,2.01,10.7,2.86,16.26,3.24c7.48,0.52,14.98,0.8,22.47,1.19c2.99,0.15,2.98-4.49,0-4.65c-6.3-0.33-12.6-0.65-18.9-0.98
				c-5.51-0.29-10.95-0.74-16.23-2.45c-8.62-2.79-16.25-8.3-21.88-15.37c-3.14-3.94-5.58-8.48-7.17-13.25
				C273.85,453.04,269.36,454.25,270.31,457.1L270.31,457.1z"/>
		</g>
		<g>
			<path class="st1" d="M310.75,489.61c11.18,3.52,23.22,3.91,34.62,1.19c2.55-0.61,2-4.61-0.62-4.56
				c-0.58,0.01-1.16,0.02-1.74,0.03c-2.99,0.05-3,4.7,0,4.65c0.58-0.01,1.16-0.02,1.74-0.03c-0.21-1.52-0.41-3.04-0.62-4.56
				c-10.62,2.53-21.74,2.09-32.15-1.19C309.13,484.24,307.91,488.72,310.75,489.61L310.75,489.61z"/>
		</g>
		<g>
			<path class="st1" d="M305.55,488.55c8.96,4.68,19.29,5.69,29.22,4.39c10.7-1.4,20.78-5.27,30.74-9.28
				c9.89-3.98,19.84-8.1,30.4-9.94c10.32-1.79,20.75-0.48,30.99,1.18c11.63,1.88,23.43,4.15,35.24,2.72
				c1.24-0.15,2.32-0.96,2.32-2.32c0-1.14-1.07-2.47-2.32-2.32c-20.85,2.53-41.09-6.51-61.94-4.48
				c-21.41,2.08-39.79,14.47-60.58,18.93c-10.49,2.25-22.01,2.18-31.72-2.88C305.25,483.15,302.9,487.16,305.55,488.55
				L305.55,488.55z"/>
		</g>
		<g>
			<path class="st1" d="M301.92,487.83c3.29,1.2,6.58,2.4,9.87,3.6c1.18,0.43,2.54-0.48,2.86-1.62c0.36-1.3-0.44-2.42-1.62-2.86
				c-2.24-0.84-4.54-1.48-6.89-1.93c-1.23-0.23-2.51,0.34-2.86,1.62c-0.37,1.33,0.46,2.38,1.62,2.86
				c5.81,2.38,12.19,3.33,18.45,2.75c1.25-0.12,2.32-0.98,2.32-2.32c0-1.17-1.07-2.44-2.32-2.32c-5.9,0.55-11.73-0.34-17.21-2.59
				c-0.41,1.49-0.82,2.99-1.23,4.48c2.35,0.45,4.65,1.09,6.89,1.93c0.41-1.49,0.82-2.99,1.23-4.48c-3.29-1.2-6.58-2.4-9.87-3.6
				c-1.18-0.43-2.54,0.48-2.86,1.62C299.94,486.27,300.74,487.4,301.92,487.83L301.92,487.83z"/>
		</g>
		<g>
			<g>
				<path class="st0" d="M341.14,369.02c1.53,4.61,2.7,9.32,3.5,14.1c0.2,1.2,1.75,1.98,2.86,1.62c1.3-0.42,1.84-1.57,1.62-2.86
					c-0.81-4.78-1.98-9.5-3.5-14.1c-0.38-1.15-1.62-2.02-2.86-1.62C341.61,366.53,340.73,367.78,341.14,369.02L341.14,369.02z"/>
			</g>
		</g>
		<g>
			<g>
				<path class="st0" d="M384.82,389.5c0.43-0.23,0.78-0.59,1.15-0.9c-0.16,0.12-0.31,0.24-0.47,0.36c0.31-0.24,0.65-0.43,1.01-0.59
					c-0.18,0.08-0.37,0.16-0.55,0.23c0.33-0.13,0.67-0.22,1.02-0.27c-0.21,0.03-0.41,0.06-0.62,0.08c0.39-0.05,0.78-0.05,1.17,0
					c-0.21-0.03-0.41-0.06-0.62-0.08c0.37,0.06,0.72,0.16,1.07,0.3c-0.18-0.08-0.37-0.16-0.55-0.23c0.66,0.28,1.25,0.67,1.82,1.11
					c-0.16-0.12-0.31-0.24-0.47-0.36c0.27,0.21,0.53,0.42,0.79,0.64c0.48,0.4,0.99,0.68,1.64,0.68c0.57,0,1.25-0.25,1.64-0.68
					c0.79-0.86,0.99-2.45,0-3.28c-0.71-0.6-1.44-1.2-2.24-1.69c-0.96-0.58-1.97-0.91-3.07-1.04c-0.85-0.1-1.77-0.01-2.58,0.27
					c-0.5,0.17-1,0.38-1.45,0.67c-0.46,0.29-0.85,0.66-1.27,1.01c0.16-0.12,0.31-0.24,0.47-0.36c-0.07,0.05-0.14,0.1-0.22,0.13
					c-1.08,0.57-1.49,2.15-0.83,3.18C382.35,389.76,383.67,390.11,384.82,389.5L384.82,389.5z"/>
			</g>
		</g>
		<g>
			<g>
				<path class="st0" d="M424.75,386.4c0.89,0.35,1.88,0.01,2.6-0.55c0.16-0.12,0.31-0.24,0.45-0.37c0.21-0.2-0.04,0.03-0.12,0.09
					c0.27-0.21-0.04,0.09-0.14,0.05c0.04,0.02,0.25-0.07,0.3-0.08c0.23-0.05,0.47-0.09,0.71-0.12c0.06-0.01,0.46-0.07,0.15-0.02
					s0.09-0.01,0.15-0.02c0.55-0.06,1.09-0.1,1.64-0.07c0.06,0,0.46,0.05,0.14,0c-0.32-0.04,0.08,0.02,0.14,0.04
					c0.12,0.03,0.66,0.11,0.71,0.22c-0.01-0.03-0.45-0.22-0.13-0.04c0.09,0.05,0.18,0.1,0.27,0.15c0.09,0.05,0.18,0.11,0.26,0.16
					c0.03,0.02,0.43,0.32,0.15,0.09c-0.26-0.21,0.02,0.02,0.07,0.06c0.08,0.07,0.16,0.14,0.24,0.21c0.18,0.16,0.34,0.33,0.51,0.5
					c0.15,0.15,0.29,0.31,0.42,0.48c0.1,0.12,0.63,0.79,0.23,0.27c0.38,0.5,0.75,0.89,1.39,1.07c0.56,0.15,1.3,0.08,1.79-0.23
					c0.95-0.61,1.62-2.15,0.83-3.18c-1.45-1.9-3.21-3.81-5.68-4.27c-1.44-0.27-2.79-0.14-4.24,0.06c-0.48,0.07-0.96,0.13-1.42,0.29
					c-0.58,0.21-0.95,0.42-1.43,0.81c-0.08,0.06-0.15,0.12-0.22,0.19c-0.15,0.13-0.14,0.13,0.02,0c0.39-0.33,0.87-0.42,1.45-0.28
					c-1.13-0.44-2.6,0.49-2.86,1.62C422.82,384.88,423.54,385.93,424.75,386.4L424.75,386.4z"/>
			</g>
		</g>
		<g>
			<g>
				<path class="st0" d="M426.17,387.5c0.13-0.12,0.26-0.24,0.39-0.36c0.03-0.03,0.36-0.3,0.18-0.16c-0.21,0.17,0.24-0.17,0.28-0.2
					c0.12-0.08,0.24-0.16,0.36-0.23c0.27-0.17,0.55-0.33,0.84-0.47c0.16-0.08,0.32-0.16,0.48-0.23c-0.24,0.09-0.04,0.02,0.09-0.02
					c0.01,0,0.59-0.13,0.38-0.11c-0.27,0.02,0.38,0.08,0.07,0.01c-0.28-0.06,0.33,0.16-0.04-0.01c0.13,0.06,0.26,0.14,0.39,0.22
					c0.16,0.1,0.31,0.21,0.46,0.31c0.33,0.22-0.39-0.33,0.14,0.11c0.25,0.21,0.5,0.42,0.75,0.63c0.98,0.87,1.85,1.83,2.69,2.84
					c0.24,0.28-0.18-0.25,0.04,0.05c0.11,0.15,0.22,0.29,0.32,0.44c0.19,0.27,0.37,0.54,0.55,0.81c0.38,0.58,0.72,1.17,1.05,1.78
					c0.57,1.07,2.15,1.49,3.18,0.83c1.09-0.7,1.45-2.03,0.83-3.18c-1.54-2.88-3.66-5.51-6.21-7.56c-1.72-1.38-3.57-2.37-5.83-1.65
					c-1.75,0.56-3.34,1.6-4.67,2.86c-0.88,0.84-0.91,2.45,0,3.28C423.84,388.37,425.23,388.4,426.17,387.5L426.17,387.5z"/>
			</g>
		</g>
		<g>
			<path class="st1" d="M319.73,349.15l-7.41-6.56c-0.39-0.34-0.87-0.57-1.38-0.65l-9.78-1.53c-2.12-0.33-3.03-2.88-1.61-4.48
				l6.56-7.41c0.34-0.39,0.57-0.87,0.65-1.38l1.53-9.78c0.33-2.12,2.88-3.03,4.48-1.61l7.41,6.56c0.39,0.34,0.87,0.57,1.38,0.65
				l9.78,1.53c2.12,0.33,3.03,2.88,1.61,4.48l-6.56,7.41c-0.34,0.39-0.57,0.87-0.65,1.38l-1.53,9.78
				C323.88,349.65,321.34,350.57,319.73,349.15z"/>
		</g>
	</g>
</g>
</svg>
